<svg xmlns="http://www.w3.org/2000/svg" width="16.983" height="13.798" viewBox="0 0 16.983 13.798">
  <path id="twitter" d="M15.238,5.691a6.95,6.95,0,0,0,1.745-1.807h0a7.271,7.271,0,0,1-2.006.55,3.463,3.463,0,0,0,1.532-1.924,6.966,6.966,0,0,1-2.208.843,3.481,3.481,0,0,0-6.022,2.38,3.585,3.585,0,0,0,.081.794A9.857,9.857,0,0,1,1.182,2.884a3.481,3.481,0,0,0,1.07,4.653A3.441,3.441,0,0,1,.679,7.108v.038a3.5,3.5,0,0,0,2.789,3.421,3.462,3.462,0,0,1-.913.115,3.073,3.073,0,0,1-.659-.059A3.516,3.516,0,0,0,5.15,13.049,7,7,0,0,1,.833,14.533,6.585,6.585,0,0,1,0,14.486a9.8,9.8,0,0,0,5.341,1.562,9.842,9.842,0,0,0,9.9-10.357Z" transform="translate(0 -2.25)" fill="#343333"/>
</svg>